<svg xmlns="http://www.w3.org/2000/svg" width="50" height="51.66" viewBox="0 0 60 62"><path fill="url(#a)" d="M52.03 0H7.53A7.53 7.53 0 0 0 0 7.53v46.93a7.53 7.53 0 0 0 7.53 7.53h44.5a7.53 7.53 0 0 0 7.53-7.53V7.53A7.53 7.53 0 0 0 52.03 0Z"/><path fill="#fff" d="M39.214 40.944c-3.43.056-8.585 0-8.585 0s-5.67 0-8.505.056L18 40.944s7.409-12.764 10.965-18.638c1.033-1.75 1.76-1.75 2.83.057 2.486 4.066 4.933 8.132 7.38 12.255C40.4 36.651 43 41 43 41l-3.786-.056Z"/><defs><linearGradient id="a" x1="0" x2="59.56" y1="31" y2="31" gradientUnits="userSpaceOnUse"><stop stop-color="#00AB0E"/><stop offset="1" stop-color="#43AF1A"/></linearGradient></defs></svg>