<svg xmlns="http://www.w3.org/2000/svg" id="Layer_1" viewBox="0 0 709.45 759.45"><defs><style>.cls-1{fill:#231f20}.cls-3{fill:#fff}</style></defs><path d="M137.73 666.75c18.16 23.44 35.28 35.05 35.29 35.06 45.14 35.59 107.73 57.65 176.93 57.65 64.16 0 122.64-18.97 166.81-50.1 178.98-101.14 69.34-403.13 0-500.64-69.35-97.5-25.51-99.26-11.4-134.07C528.21 18.28 485.59 0 485.59 0c19.84 45.7-60.98 54.85-73.17 117.31-16.18 82.94 115.79 219.38 53.32 230.05-39.34 6.72-26.66-30.09-108.17-147.78-83.64-120.77 41.13-181.3 41.13-181.3C253.97 28.94 201.41 132.16 225.4 211c21.08 69.27 17.14 157.68-21.71 175.96s-30.68-47.99-30.68-47.99c-101.2 141.69-85.12 240.99-53.69 299.46 5.17 9.87 11.32 19.33 18.4 28.31Z" style="fill:#ef4123"/><path d="M523.55 458.54c-114.14 97.08-184.6-142.48-184.6-142.48 0 61.82-18.28 147.78-68.56 158.44-67.6 14.34-78.07-30.78-78.07-30.78-46.3 79.64-27.11 202.68 45.19 261.54 94.71 77.11 264.01 34.47 297.15-86.93 13.87-50.8 7.9-110.78-11.11-159.79Z" style="fill:#f9b617"/><path d="M140.26 667.12c-3.3 0-5.97-2.67-5.97-5.97v-89.87H62.33v89.87c0 3.3-2.67 5.97-5.97 5.97H11.94c-3.3 0-5.97-2.67-5.97-5.97V446.46c0-3.3 2.67-5.97 5.97-5.97h44.42c3.3 0 5.97 2.67 5.97 5.97v75.89h71.96v-75.89c0-3.3 2.67-5.97 5.97-5.97h44.57c3.3 0 5.97 2.67 5.97 5.97v214.69c0 3.3-2.67 5.97-5.97 5.97h-44.57Z" class="cls-1"/><path d="M184.83 446.46v214.69h-44.57v-95.84h-83.9v95.84H11.94V446.46h44.42v81.86h83.89v-81.86h44.57m.01-11.94h-44.57c-6.59 0-11.94 5.35-11.94 11.94v69.92H68.3v-69.92c0-6.59-5.35-11.94-11.94-11.94H11.94C5.35 434.52 0 439.87 0 446.46v214.69c0 6.59 5.35 11.94 11.94 11.94h44.42c6.59 0 11.94-5.35 11.94-11.94v-83.9h60.02v83.9c0 6.59 5.35 11.94 11.94 11.94h44.57c6.59 0 11.94-5.35 11.94-11.94V446.46c0-6.59-5.35-11.94-11.94-11.94Z" class="cls-3"/><path d="M322.61 673.09c-32.16 0-57.24-9-74.54-26.77-22.83-21.56-34.41-52.78-34.41-92.81s11.59-72.05 34.45-92.85c17.3-17.73 42.37-26.72 74.5-26.72s57.2 8.99 74.5 26.73c22.76 20.8 34.3 52.04 34.3 92.85s-11.53 71.25-34.26 92.81c-17.3 17.76-42.38 26.77-74.54 26.77Zm0-189.2c-16.02 0-28.41 5.71-37.88 17.44-9.66 11.96-14.55 29.51-14.55 52.18s4.9 40.22 14.55 52.18c9.48 11.74 21.87 17.44 37.88 17.44s28.34-5.7 37.72-17.42c9.47-11.95 14.28-29.52 14.28-52.2s-4.83-40.13-14.36-52.15c-9.33-11.76-21.64-17.48-37.64-17.48Z" class="cls-1"/><path d="M322.61 439.9c30.68 0 54.13 8.35 70.35 25.05 21.65 19.71 32.48 49.23 32.48 88.56s-10.83 68.07-32.48 88.56c-16.22 16.7-39.67 25.05-70.35 25.05s-54.13-8.35-70.35-25.05c-21.75-20.49-32.63-50.01-32.63-88.56s10.87-68.84 32.63-88.56c16.22-16.7 39.66-25.05 70.35-25.05m0 189.2c17.77 0 31.9-6.55 42.38-19.66 10.39-13.11 15.58-31.75 15.58-55.93s-5.22-42.7-15.66-55.86c-10.44-13.16-24.54-19.74-42.31-19.74s-31.95 6.55-42.53 19.66c-10.58 13.11-15.88 31.75-15.88 55.93s5.29 42.82 15.88 55.93c10.58 13.11 24.76 19.66 42.53 19.66m.01-201.12c-33.73 0-60.18 9.55-78.65 28.4-24.07 21.98-36.27 54.66-36.27 97.15s12.18 74.34 36.19 97.07c18.46 18.9 44.95 28.48 78.73 28.48s60.27-9.58 78.74-28.49c23.91-22.73 36.03-55.38 36.03-97.06s-12.15-75.16-36.11-97.14c-18.46-18.85-44.93-28.41-78.66-28.41Zm0 189.19c-14.1 0-24.97-4.98-33.24-15.22-8.78-10.87-13.23-27.16-13.23-48.43s4.45-37.56 13.23-48.43c8.27-10.24 19.14-15.22 33.24-15.22s24.83 4.98 32.96 15.22c8.67 10.93 13.07 27.23 13.07 48.44s-4.37 37.6-12.98 48.49c-8.17 10.21-18.98 15.17-33.05 15.17Z" class="cls-3"/><path d="M506.27 667.12c-3.3 0-5.97-2.67-5.97-5.97v-170.7h-58.55c-3.3 0-5.97-2.67-5.97-5.97v-38.01c0-3.3 2.67-5.97 5.97-5.97h173.91c3.3 0 5.97 2.67 5.97 5.97v38.01c0 3.3-2.67 5.97-5.97 5.97H557.4v170.7c0 3.3-2.67 5.97-5.97 5.97h-45.15Z" class="cls-1"/><path d="M615.66 446.46v38.01h-64.23v176.67h-45.15V484.47h-64.52v-38.01h173.91m-.01-11.94H441.75c-6.59 0-11.94 5.35-11.94 11.94v38.01c0 6.59 5.35 11.94 11.94 11.94h52.58v164.73c0 6.59 5.35 11.94 11.94 11.94h45.15c6.59 0 11.94-5.35 11.94-11.94V496.41h52.29c6.59 0 11.94-5.35 11.94-11.94v-38.01c0-6.59-5.35-11.94-11.94-11.94Z" class="cls-3"/><path d="M652.95 667.12c-3.3 0-5.97-2.67-5.97-5.97v-42.09c0-3.3 2.67-5.97 5.97-5.97h43.4c3.3 0 5.97 2.67 5.97 5.97v42.09c0 3.3-2.67 5.97-5.97 5.97h-43.4Zm11.06-59.28c-3.02 0-5.56-2.26-5.93-5.25l-12.09-100.21a5.74 5.74 0 0 1-.04-.71V447.2c0-3.3 2.67-5.97 5.97-5.97h45.59c3.3 0 5.97 2.67 5.97 5.97v54.47c0 .23-.01.47-.04.7l-11.8 100.21a5.961 5.961 0 0 1-5.93 5.27h-21.7Z" class="cls-1"/><path d="M697.51 447.19v54.47l-11.8 100.21h-21.7l-12.09-100.21v-54.47h45.59m-1.16 171.86v42.09h-43.4v-42.09h43.4m1.16-183.8h-45.59c-6.59 0-11.94 5.35-11.94 11.94v54.47c0 .48.03.96.09 1.43l12.09 100.21c.16 1.36.55 2.65 1.13 3.82h-.34c-6.59 0-11.94 5.35-11.94 11.94v42.09c0 6.59 5.35 11.94 11.94 11.94h43.4c6.59 0 11.94-5.35 11.94-11.94v-42.09c0-6.56-5.3-11.89-11.85-11.94.58-1.18.97-2.48 1.13-3.85l11.8-100.21c.05-.46.08-.93.08-1.4v-54.47c0-6.59-5.35-11.94-11.94-11.94Z" class="cls-3"/></svg>